<svg width="20" height="20" viewBox="0 0 20 20" fill="none" xmlns="http://www.w3.org/2000/svg">
<path d="M14.1666 18.3334H4.16663C3.50358 18.3334 2.8677 18.07 2.39886 17.6012C1.93002 17.1324 1.66663 16.4965 1.66663 15.8334L1.66663 7.50009C1.66663 6.83705 1.93002 6.20117 2.39886 5.73233C2.8677 5.26349 3.50358 5.00009 4.16663 5.00009H4.99996C5.01398 4.29396 5.25192 3.61053 5.67947 3.04837C6.10702 2.48621 6.70208 2.07438 7.37882 1.87229C8.05557 1.67019 8.77901 1.68827 9.44481 1.92392C10.1106 2.15957 10.6844 2.60061 11.0833 3.18343C11.457 3.71605 11.6604 4.34948 11.6666 5.00009L14.1666 5.00009C14.3876 5.00009 14.5996 5.08789 14.7559 5.24417C14.9122 5.40045 15 5.61241 15 5.83343V8.33343C15.7061 8.34744 16.3895 8.58539 16.9517 9.01294C17.5138 9.44049 17.9257 10.0355 18.1278 10.7123C18.3299 11.389 18.3118 12.1125 18.0761 12.7783C17.8405 13.4441 17.3994 14.0178 16.8166 14.4168C16.284 14.7905 15.6506 14.9939 15 15.0001V17.5001C15 17.7211 14.9122 17.9331 14.7559 18.0893C14.5996 18.2456 14.3876 18.3334 14.1666 18.3334ZM4.16663 6.66676C3.94561 6.66676 3.73365 6.75456 3.57737 6.91084C3.42109 7.06712 3.33329 7.27908 3.33329 7.50009L3.33329 15.8334C3.33329 16.0544 3.42109 16.2664 3.57737 16.4227C3.73365 16.579 3.94561 16.6668 4.16663 16.6668H13.3333V14.0168C13.3326 13.8831 13.364 13.7513 13.4249 13.6324C13.4858 13.5135 13.5744 13.4109 13.6833 13.3334C13.7918 13.256 13.9173 13.2058 14.0493 13.187C14.1812 13.1681 14.3158 13.1812 14.4416 13.2251C14.6791 13.322 14.9378 13.3553 15.1921 13.3216C15.4463 13.288 15.6875 13.1887 15.8916 13.0334C16.0948 12.9095 16.2691 12.7435 16.4028 12.5466C16.5365 12.3496 16.6265 12.1264 16.6666 11.8918C16.6988 11.6551 16.6797 11.4144 16.6107 11.1858C16.5417 10.9572 16.4243 10.7461 16.2666 10.5668C16.0533 10.3077 15.7629 10.1235 15.4376 10.0411C15.1123 9.95861 14.7692 9.98222 14.4583 10.1084C14.3324 10.1523 14.1979 10.1654 14.0659 10.1466C13.934 10.1277 13.8085 10.0775 13.7 10.0001C13.5911 9.9226 13.5025 9.82006 13.4416 9.70113C13.3807 9.58221 13.3492 9.45038 13.35 9.31676V6.66676H10.6833C10.5463 6.67452 10.4096 6.64835 10.2852 6.59058C10.1607 6.5328 10.0525 6.4452 9.97008 6.33556C9.88764 6.22592 9.83354 6.09762 9.81259 5.96205C9.79163 5.82649 9.80447 5.68784 9.84996 5.55843C9.94684 5.32093 9.98012 5.06228 9.94651 4.808C9.9129 4.55371 9.81356 4.31259 9.65829 4.10843C9.53525 3.8994 9.36676 3.72073 9.16529 3.58567C8.96382 3.45061 8.73454 3.36261 8.49445 3.3282C8.25435 3.29378 8.00958 3.31383 7.77829 3.38687C7.54699 3.4599 7.33509 3.58404 7.15829 3.75009C6.99411 3.91294 6.8656 4.10817 6.78096 4.32337C6.69631 4.53857 6.65738 4.76903 6.66663 5.00009C6.66856 5.19124 6.70527 5.38043 6.77496 5.55843C6.81901 5.68444 6.83215 5.8192 6.81326 5.95135C6.79438 6.0835 6.74402 6.20918 6.66642 6.31781C6.58883 6.42644 6.48628 6.51483 6.3674 6.57556C6.24852 6.63629 6.11678 6.66756 5.98329 6.66676H4.16663Z" fill="white"/>
</svg>
