<svg width="24" height="24" viewBox="0 0 24 24" fill="none" xmlns="http://www.w3.org/2000/svg">
<path d="M21.38 18.24C21.3458 18.3677 21.2867 18.4874 21.206 18.5921C21.1254 18.6968 21.0247 18.7845 20.91 18.85L15.71 21.85C15.5964 21.9166 15.4709 21.96 15.3405 21.9779C15.2101 21.9958 15.0775 21.9879 14.9502 21.9544C14.823 21.921 14.7035 21.8627 14.5988 21.783C14.4941 21.7033 14.4061 21.6038 14.34 21.49L12 17.43L9.65997 21.49C9.59381 21.6038 9.50584 21.7033 9.40112 21.783C9.2964 21.8627 9.17698 21.921 9.0497 21.9544C8.92243 21.9879 8.7898 21.9958 8.65943 21.9779C8.52906 21.96 8.40351 21.9166 8.28997 21.85L3.08997 18.85C2.9752 18.7845 2.87457 18.6968 2.7939 18.5921C2.71323 18.4874 2.65411 18.3677 2.61997 18.24C2.55379 17.9866 2.58969 17.7173 2.71997 17.49L6.71997 10.66C6.27372 9.84248 6.02701 8.93104 5.99997 8.00002C5.99759 7.09174 6.20145 6.19477 6.59619 5.37674C6.99093 4.55871 7.56623 3.84098 8.27873 3.27765C8.99122 2.71433 9.82232 2.32012 10.7093 2.12475C11.5964 1.92937 12.5162 1.93794 13.3994 2.14979C14.2826 2.36164 15.1063 2.77125 15.8081 3.34774C16.51 3.92423 17.0719 4.65255 17.4513 5.47778C17.8308 6.30301 18.0179 7.20363 17.9986 8.11171C17.9793 9.01979 17.7541 9.91164 17.34 10.72L21.24 17.48C21.3126 17.5911 21.3623 17.7155 21.3864 17.846C21.4104 17.9764 21.4082 18.1104 21.38 18.24ZM4.99997 17.62L8.45997 19.62L11.68 14C10.3074 13.9152 9.00676 13.3568 7.99997 12.42L4.99997 17.62ZM12 4.00002C10.9391 4.00002 9.92169 4.42145 9.17154 5.17159C8.4214 5.92174 7.99997 6.93915 7.99997 8.00002C7.99997 9.06089 8.4214 10.0783 9.17154 10.8284C9.92169 11.5786 10.9391 12 12 12C13.0608 12 14.0783 11.5786 14.8284 10.8284C15.5785 10.0783 16 9.06089 16 8.00002C16 6.93915 15.5785 5.92174 14.8284 5.17159C14.0783 4.42145 13.0608 4.00002 12 4.00002ZM16 12.45C15.457 12.9459 14.8262 13.3359 14.14 13.6L13.16 15.43L15.58 19.62L19.04 17.62L16 12.45Z" fill="black"/>
</svg>
