<svg width="24" height="24" viewBox="0 0 24 24" fill="none" xmlns="http://www.w3.org/2000/svg">
<path fill-rule="evenodd" clip-rule="evenodd" d="M7.07924 2.40002C7.5763 2.40002 7.97924 2.80297 7.97924 3.30002V3.90471H11.1V3.30002C11.1 2.80297 11.503 2.40002 12 2.40002C12.4971 2.40002 12.9 2.80297 12.9 3.30002V3.90471H15.9V3.30002C15.9 2.80297 16.303 2.40002 16.8 2.40002C17.2971 2.40002 17.7 2.80297 17.7 3.30002V3.90471H18.3C20.1226 3.90471 21.6 5.38217 21.6 7.20471V10.9172C21.6 11.4143 21.1971 11.8172 20.7 11.8172C20.203 11.8172 19.8 11.4143 19.8 10.9172V7.20471C19.8 6.37629 19.1284 5.70471 18.3 5.70471H17.7V6.3017C17.7 6.79876 17.2971 7.2017 16.8 7.2017C16.303 7.2017 15.9 6.79876 15.9 6.3017V5.70471H12.9V6.3017C12.9 6.79876 12.4971 7.2017 12 7.2017C11.503 7.2017 11.1 6.79876 11.1 6.3017V5.70471H7.97924V6.3017C7.97924 6.79876 7.5763 7.2017 7.07924 7.2017C6.58218 7.2017 6.17924 6.79876 6.17924 6.3017V5.70471H5.70002C4.8716 5.70471 4.20002 6.37629 4.20002 7.20471V18.3047C4.20002 19.1331 4.8716 19.8047 5.70002 19.8047H10.9125C11.4096 19.8047 11.8125 20.2077 11.8125 20.7047C11.8125 21.2018 11.4096 21.6047 10.9125 21.6047H5.70002C3.87748 21.6047 2.40002 20.1273 2.40002 18.3047V7.20471C2.40002 5.38217 3.87748 3.90471 5.70002 3.90471H6.17924V3.30002C6.17924 2.80297 6.58218 2.40002 7.07924 2.40002ZM7.94403 10.2647C7.94403 10.7286 7.56794 11.1047 7.10403 11.1047C6.64011 11.1047 6.26403 10.7286 6.26403 10.2647C6.26403 9.80079 6.64011 9.42471 7.10403 9.42471C7.56794 9.42471 7.94403 9.80079 7.94403 10.2647ZM10.344 11.1047C10.8079 11.1047 11.184 10.7286 11.184 10.2647C11.184 9.80079 10.8079 9.42471 10.344 9.42471C9.8801 9.42471 9.50402 9.80079 9.50402 10.2647C9.50402 10.7286 9.8801 11.1047 10.344 11.1047ZM7.94403 13.5407C7.94403 14.0046 7.56794 14.3807 7.10403 14.3807C6.64011 14.3807 6.26403 14.0046 6.26403 13.5407C6.26403 13.0768 6.64011 12.7007 7.10403 12.7007C7.56794 12.7007 7.94403 13.0768 7.94403 13.5407ZM10.344 14.3807C10.8079 14.3807 11.184 14.0046 11.184 13.5407C11.184 13.0768 10.8079 12.7007 10.344 12.7007C9.8801 12.7007 9.50402 13.0768 9.50402 13.5407C9.50402 14.0046 9.8801 14.3807 10.344 14.3807ZM7.94403 16.7927C7.94403 17.2566 7.56794 17.6327 7.10403 17.6327C6.64011 17.6327 6.26403 17.2566 6.26403 16.7927C6.26403 16.3288 6.64011 15.9527 7.10403 15.9527C7.56794 15.9527 7.94403 16.3288 7.94403 16.7927ZM10.344 17.6327C10.8079 17.6327 11.184 17.2566 11.184 16.7927C11.184 16.3288 10.8079 15.9527 10.344 15.9527C9.8801 15.9527 9.50402 16.3288 9.50402 16.7927C9.50402 17.2566 9.8801 17.6327 10.344 17.6327ZM14.46 10.2647C14.46 10.7286 14.0839 11.1047 13.62 11.1047C13.1561 11.1047 12.78 10.7286 12.78 10.2647C12.78 9.80079 13.1561 9.42471 13.62 9.42471C14.0839 9.42471 14.46 9.80079 14.46 10.2647ZM16.86 11.1047C17.3239 11.1047 17.7 10.7286 17.7 10.2647C17.7 9.80079 17.3239 9.42471 16.86 9.42471C16.3961 9.42471 16.02 9.80079 16.02 10.2647C16.02 10.7286 16.3961 11.1047 16.86 11.1047Z" fill="#3F434A"/>
<path fill-rule="evenodd" clip-rule="evenodd" d="M19.8 16.8047C19.8 18.4616 18.4569 19.8047 16.8 19.8047C15.1431 19.8047 13.8 18.4616 13.8 16.8047C13.8 15.1478 15.1431 13.8047 16.8 13.8047C18.4569 13.8047 19.8 15.1478 19.8 16.8047ZM21.6 16.8047C21.6 19.4557 19.451 21.6047 16.8 21.6047C14.149 21.6047 12 19.4557 12 16.8047C12 14.1537 14.149 12.0047 16.8 12.0047C19.451 12.0047 21.6 14.1537 21.6 16.8047ZM17.04 15.6047C17.04 15.2733 16.7714 15.0047 16.44 15.0047C16.1086 15.0047 15.84 15.2733 15.84 15.6047V17.4047C15.84 17.7361 16.1086 18.0047 16.44 18.0047H17.88C18.2114 18.0047 18.48 17.7361 18.48 17.4047C18.48 17.0733 18.2114 16.8047 17.88 16.8047H17.04V15.6047Z" fill="#3F434A"/>
</svg>
