<svg width="24" height="24" viewBox="0 0 24 24" fill="none" xmlns="http://www.w3.org/2000/svg">
<path fill-rule="evenodd" clip-rule="evenodd" d="M4.5026 6.9025C4.69641 6.70869 4.95928 6.5998 5.23337 6.5998H18.7676C19.0417 6.5998 19.3046 6.70869 19.4984 6.9025C19.6922 7.09631 19.8011 7.35918 19.8011 7.63327V17.3006C19.8011 17.5747 19.6922 17.8376 19.4984 18.0314C19.3046 18.2252 19.0417 18.3341 18.7676 18.3341H7.16684C6.92814 18.3341 6.69922 18.4289 6.53044 18.5977L4.1999 20.9282V7.63327C4.1999 7.35918 4.30879 7.09631 4.5026 6.9025ZM5.23337 4.7998C4.48189 4.7998 3.76118 5.09833 3.22981 5.62971C2.69843 6.16109 2.3999 6.88179 2.3999 7.63327V23.101C2.3999 23.465 2.61918 23.7932 2.95549 23.9325C3.29179 24.0718 3.6789 23.9948 3.9363 23.7374L7.53963 20.1341H18.7676C19.5191 20.1341 20.2398 19.8355 20.7712 19.3042C21.3026 18.7728 21.6011 18.0521 21.6011 17.3006V7.63327C21.6011 6.88179 21.3026 6.16109 20.7712 5.62971C20.2398 5.09833 19.5191 4.7998 18.7676 4.7998H5.23337ZM6.89109 9.5998C6.39404 9.5998 5.99109 10.0027 5.99109 10.4998C5.99109 10.9969 6.39404 11.3998 6.89109 11.3998H17.0999C17.597 11.3998 17.9999 10.9969 17.9999 10.4998C17.9999 10.0027 17.597 9.5998 17.0999 9.5998H6.89109ZM6.8999 13.2004C6.40285 13.2004 5.9999 13.6034 5.9999 14.1004C5.9999 14.5975 6.40285 15.0004 6.8999 15.0004H13.5036C14.0007 15.0004 14.4036 14.5975 14.4036 14.1004C14.4036 13.6034 14.0007 13.2004 13.5036 13.2004L6.8999 13.2004Z" fill="#333333"/>
</svg>
