<svg width="32" height="32" viewBox="0 0 32 32" fill="none" xmlns="http://www.w3.org/2000/svg">
<circle cx="16" cy="16" r="16" fill="white"/>
<path d="M15.2211 15.9944L19.9411 11.2744C20.1894 11.0246 20.3288 10.6866 20.3288 10.3344C20.3288 9.98215 20.1894 9.64421 19.9411 9.3944C19.8171 9.26943 19.6696 9.17023 19.5072 9.10254C19.3447 9.03485 19.1704 9 18.9944 9C18.8184 9 18.6441 9.03485 18.4816 9.10254C18.3191 9.17023 18.1717 9.26943 18.0477 9.3944L12.3944 15.0477C12.2694 15.1717 12.1702 15.3191 12.1025 15.4816C12.0349 15.6441 12 15.8184 12 15.9944C12 16.1704 12.0349 16.3447 12.1025 16.5072C12.1702 16.6696 12.2694 16.8171 12.3944 16.9411L18.0477 22.6611C18.1723 22.7846 18.3201 22.8824 18.4825 22.9488C18.645 23.0151 18.8189 23.0487 18.9944 23.0477C19.1699 23.0487 19.3438 23.0151 19.5063 22.9488C19.6687 22.8824 19.8165 22.7846 19.9411 22.6611C20.1894 22.4112 20.3288 22.0733 20.3288 21.7211C20.3288 21.3688 20.1894 21.0309 19.9411 20.7811L15.2211 15.9944Z" fill="black"/>
</svg>
