<svg width="20" height="20" viewBox="0 0 20 20" fill="none" xmlns="http://www.w3.org/2000/svg">
<path d="M5.83329 12.4998H8.33329C8.55431 12.4998 8.76627 12.412 8.92255 12.2558C9.07883 12.0995 9.16663 11.8875 9.16663 11.6665C9.16663 11.4455 9.07883 11.2335 8.92255 11.0772C8.76627 10.921 8.55431 10.8332 8.33329 10.8332H5.83329C5.61228 10.8332 5.40032 10.921 5.24404 11.0772C5.08776 11.2335 4.99996 11.4455 4.99996 11.6665C4.99996 11.8875 5.08776 12.0995 5.24404 12.2558C5.40032 12.412 5.61228 12.4998 5.83329 12.4998ZM15.8333 4.1665L4.16663 4.1665C3.50358 4.1665 2.8677 4.4299 2.39886 4.89874C1.93002 5.36758 1.66663 6.00346 1.66663 6.6665L1.66663 14.1665C1.66663 14.8295 1.93002 15.4654 2.39886 15.9343C2.8677 16.4031 3.50358 16.6665 4.16663 16.6665H15.8333C16.4963 16.6665 17.1322 16.4031 17.6011 15.9343C18.0699 15.4654 18.3333 14.8295 18.3333 14.1665V6.6665C18.3333 6.00346 18.0699 5.36758 17.6011 4.89874C17.1322 4.4299 16.4963 4.1665 15.8333 4.1665ZM16.6666 14.1665C16.6666 14.3875 16.5788 14.5995 16.4226 14.7558C16.2663 14.912 16.0543 14.9998 15.8333 14.9998H4.16663C3.94561 14.9998 3.73365 14.912 3.57737 14.7558C3.42109 14.5995 3.33329 14.3875 3.33329 14.1665L3.33329 9.1665H16.6666V14.1665ZM16.6666 7.49984L3.33329 7.49984V6.6665C3.33329 6.44549 3.42109 6.23353 3.57737 6.07725C3.73365 5.92097 3.94561 5.83317 4.16663 5.83317L15.8333 5.83317C16.0543 5.83317 16.2663 5.92097 16.4226 6.07725C16.5788 6.23353 16.6666 6.44549 16.6666 6.6665V7.49984Z" fill="#333333"/>
</svg>
