<svg width="41" height="36" viewBox="0 0 41 36" fill="none" xmlns="http://www.w3.org/2000/svg">
<path d="M14.625 0C12.5227 0 10.7789 1.44141 10.2797 3.38906C10.2234 3.38906 10.1812 3.375 10.125 3.375C7.64297 3.375 5.625 5.39297 5.625 7.875C5.625 8.2125 5.66719 8.54297 5.74453 8.85937C3.69141 9.70312 2.25 11.7141 2.25 14.0625C2.25 14.9484 2.475 15.7711 2.83359 16.5164C1.14609 17.4867 0 19.2867 0 21.375C0 23.7164 1.43437 25.7273 3.47344 26.5711C3.41016 26.8945 3.375 27.225 3.375 27.5625C3.375 30.3609 5.63906 32.625 8.4375 32.625C8.72578 32.625 9.00703 32.5898 9.28125 32.5406C9.95625 34.5445 11.8266 36 14.0625 36C16.8609 36 19.125 33.7359 19.125 30.9375V4.5C19.125 2.01797 17.107 0 14.625 0ZM40.5 21.375C40.5 19.2867 39.3539 17.4867 37.6664 16.5164C38.032 15.7711 38.25 14.9484 38.25 14.0625C38.25 11.7141 36.8086 9.70312 34.7555 8.85937C34.8258 8.54297 34.875 8.2125 34.875 7.875C34.875 5.39297 32.857 3.375 30.375 3.375C30.3187 3.375 30.2695 3.38906 30.2203 3.38906C29.7211 1.44141 27.9773 0 25.875 0C23.393 0 21.375 2.01094 21.375 4.5V30.9375C21.375 33.7359 23.6391 36 26.4375 36C28.6734 36 30.5437 34.5445 31.2187 32.5406C31.493 32.5898 31.7742 32.625 32.0625 32.625C34.8609 32.625 37.125 30.3609 37.125 27.5625C37.125 27.225 37.0898 26.8945 37.0266 26.5711C39.0656 25.7273 40.5 23.7164 40.5 21.375Z" fill="#333333"/>
</svg>
