<svg width="20" height="20" viewBox="0 0 20 20" fill="none" xmlns="http://www.w3.org/2000/svg">
<path d="M9.4083 12.7415C9.37246 12.7811 9.33906 12.8228 9.3083 12.8665C9.27676 12.913 9.25154 12.9634 9.2333 13.0165C9.20927 13.0637 9.19242 13.1143 9.1833 13.1665C9.17921 13.222 9.17921 13.2777 9.1833 13.3332C9.18048 13.4425 9.20331 13.5509 9.24996 13.6498C9.28739 13.7533 9.3471 13.8472 9.42487 13.9249C9.50263 14.0027 9.59655 14.0624 9.69996 14.0998C9.79971 14.1439 9.90757 14.1667 10.0166 14.1667C10.1257 14.1667 10.2335 14.1439 10.3333 14.0998C10.4367 14.0624 10.5306 14.0027 10.6084 13.9249C10.6862 13.8472 10.7459 13.7533 10.7833 13.6498C10.8203 13.5485 10.8373 13.441 10.8333 13.3332C10.8339 13.2235 10.8129 13.1148 10.7714 13.0132C10.73 12.9117 10.6689 12.8194 10.5916 12.7415C10.5142 12.6634 10.422 12.6014 10.3204 12.5591C10.2189 12.5168 10.11 12.495 9.99996 12.495C9.88995 12.495 9.78103 12.5168 9.67948 12.5591C9.57793 12.6014 9.48577 12.6634 9.4083 12.7415ZM9.99996 1.6665C8.35179 1.6665 6.74062 2.15525 5.37021 3.07092C3.9998 3.9866 2.9317 5.28809 2.30097 6.81081C1.67024 8.33353 1.50521 10.0091 1.82675 11.6256C2.1483 13.2421 2.94197 14.727 4.10741 15.8924C5.27284 17.0578 6.7577 17.8515 8.37421 18.173C9.99072 18.4946 11.6663 18.3296 13.189 17.6988C14.7117 17.0681 16.0132 16 16.9289 14.6296C17.8446 13.2592 18.3333 11.648 18.3333 9.99984C18.3333 8.90549 18.1177 7.82186 17.699 6.81081C17.2802 5.79976 16.6663 4.8811 15.8925 4.10728C15.1187 3.33346 14.2 2.71963 13.189 2.30084C12.1779 1.88205 11.0943 1.6665 9.99996 1.6665V1.6665ZM9.99996 16.6665C8.68142 16.6665 7.39249 16.2755 6.29616 15.543C5.19983 14.8104 4.34535 13.7692 3.84077 12.5511C3.33618 11.3329 3.20416 9.99244 3.46139 8.69924C3.71863 7.40603 4.35357 6.21814 5.28592 5.28579C6.21827 4.35344 7.40615 3.7185 8.69936 3.46127C9.99257 3.20403 11.333 3.33606 12.5512 3.84064C13.7694 4.34522 14.8105 5.19971 15.5431 6.29604C16.2756 7.39236 16.6666 8.6813 16.6666 9.99984C16.6666 11.7679 15.9643 13.4636 14.714 14.7139C13.4638 15.9641 11.7681 16.6665 9.99996 16.6665V16.6665ZM9.99996 5.83317C9.56085 5.83289 9.12941 5.94827 8.74905 6.16771C8.3687 6.38714 8.05285 6.70289 7.8333 7.08317C7.773 7.17802 7.73252 7.28408 7.71427 7.39498C7.69603 7.50588 7.70041 7.61933 7.72715 7.72849C7.75389 7.83766 7.80244 7.94028 7.86987 8.0302C7.9373 8.12012 8.02222 8.19546 8.11952 8.25171C8.21683 8.30795 8.3245 8.34393 8.43607 8.35749C8.54764 8.37104 8.6608 8.36188 8.76874 8.33057C8.87668 8.29925 8.97717 8.24643 9.06417 8.17527C9.15116 8.10411 9.22287 8.01609 9.27496 7.9165C9.34838 7.78933 9.4541 7.68382 9.58142 7.61065C9.70873 7.53748 9.85312 7.49925 9.99996 7.49984C10.221 7.49984 10.4329 7.58764 10.5892 7.74392C10.7455 7.9002 10.8333 8.11216 10.8333 8.33317C10.8333 8.55418 10.7455 8.76615 10.5892 8.92243C10.4329 9.07871 10.221 9.1665 9.99996 9.1665C9.77895 9.1665 9.56699 9.2543 9.41071 9.41058C9.25443 9.56686 9.16663 9.77882 9.16663 9.99984V10.8332C9.16663 11.0542 9.25443 11.2661 9.41071 11.4224C9.56699 11.5787 9.77895 11.6665 9.99996 11.6665C10.221 11.6665 10.4329 11.5787 10.5892 11.4224C10.7455 11.2661 10.8333 11.0542 10.8333 10.8332V10.6832C11.3844 10.4832 11.8478 10.0959 12.1423 9.58889C12.4368 9.08193 12.5437 8.48758 12.4445 7.90975C12.3452 7.33191 12.046 6.80735 11.5991 6.42777C11.1523 6.04818 10.5862 5.83772 9.99996 5.83317V5.83317Z" fill="#333333"/>
</svg>
