<svg width="24" height="24" viewBox="0 0 24 24" fill="none" xmlns="http://www.w3.org/2000/svg">
<path fill-rule="evenodd" clip-rule="evenodd" d="M6.264 4.264C6.51307 4.01493 6.85088 3.875 7.20312 3.875L18.5 3.875V15.5938H7.20312C6.74044 15.5938 6.28808 15.6939 5.875 15.8821L5.875 5.20313C5.875 4.85088 6.01493 4.51307 6.264 4.264ZM5.875 18.7969C5.875 19.1491 6.01493 19.4869 6.264 19.736C6.51307 19.9851 6.85088 20.125 7.20312 20.125H18.5V17.4688H7.20312C6.85088 17.4688 6.51307 17.6087 6.264 17.8577C6.01493 18.1068 5.875 18.4446 5.875 18.7969ZM20.375 16.5313V2.9375C20.375 2.41973 19.9553 2 19.4375 2L7.20312 2C6.3536 2 5.53888 2.33747 4.93817 2.93817C4.33747 3.53888 4 4.3536 4 5.20313L4 18.7969C4 19.6464 4.33747 20.4611 4.93817 21.0618C5.53888 21.6625 6.3536 22 7.20312 22H19.4375C19.9553 22 20.375 21.5803 20.375 21.0625V16.5313Z" fill="white"/>
</svg>
