<svg width="22" height="20" viewBox="0 0 22 20" fill="none" xmlns="http://www.w3.org/2000/svg">
<path fill-rule="evenodd" clip-rule="evenodd" d="M5.20278 3.5C4.96447 3.5 4.73592 3.59072 4.56741 3.75221C4.3989 3.9137 4.30423 4.13273 4.30423 4.36111V15.6389C4.30423 15.8673 4.3989 16.0863 4.56741 16.2478C4.73592 16.4093 4.96447 16.5 5.20278 16.5H8.5651C8.99732 16.5 9.34771 16.8358 9.34771 17.25C9.34771 17.6642 8.99732 18 8.5651 18H5.20278C4.54935 18 3.92268 17.7512 3.46063 17.3084C2.99859 16.8657 2.73901 16.2651 2.73901 15.6389V4.36111C2.73901 3.73491 2.99859 3.13435 3.46063 2.69155C3.92268 2.24876 4.54935 2 5.20278 2H8.5651C8.99732 2 9.34771 2.33579 9.34771 2.75C9.34771 3.16421 8.99732 3.5 8.5651 3.5H5.20278ZM13.8958 5.4419C14.2014 5.14901 14.6969 5.14901 15.0026 5.4419L19.2055 9.46968C19.2883 9.54903 19.3486 9.64175 19.3866 9.74058C19.4102 9.80199 19.4257 9.86718 19.4317 9.93494C19.4414 10.042 19.4272 10.1507 19.389 10.253C19.3512 10.3542 19.2901 10.4493 19.2055 10.5303L15.0026 14.5581C14.6969 14.851 14.2014 14.851 13.8958 14.5581C13.5902 14.2652 13.5902 13.7903 13.8958 13.4975L16.7627 10.75H8.56508C8.13286 10.75 7.78247 10.4142 7.78247 10C7.78247 9.58579 8.13286 9.25 8.56508 9.25H16.7627L13.8958 6.50256C13.5902 6.20967 13.5902 5.73479 13.8958 5.4419Z" fill="#C2C9D1"/>
<path fill-rule="evenodd" clip-rule="evenodd" d="M5.20278 3.5C4.96447 3.5 4.73592 3.59072 4.56741 3.75221C4.3989 3.9137 4.30423 4.13273 4.30423 4.36111V15.6389C4.30423 15.8673 4.3989 16.0863 4.56741 16.2478C4.73592 16.4093 4.96447 16.5 5.20278 16.5H8.5651C8.99732 16.5 9.34771 16.8358 9.34771 17.25C9.34771 17.6642 8.99732 18 8.5651 18H5.20278C4.54935 18 3.92268 17.7512 3.46063 17.3084C2.99859 16.8657 2.73901 16.2651 2.73901 15.6389V4.36111C2.73901 3.73491 2.99859 3.13435 3.46063 2.69155C3.92268 2.24876 4.54935 2 5.20278 2H8.5651C8.99732 2 9.34771 2.33579 9.34771 2.75C9.34771 3.16421 8.99732 3.5 8.5651 3.5H5.20278ZM13.8958 5.4419C14.2014 5.14901 14.6969 5.14901 15.0026 5.4419L19.2055 9.46968C19.2883 9.54903 19.3486 9.64175 19.3866 9.74058C19.4102 9.80199 19.4257 9.86718 19.4317 9.93494C19.4414 10.042 19.4272 10.1507 19.389 10.253C19.3512 10.3542 19.2901 10.4493 19.2055 10.5303L15.0026 14.5581C14.6969 14.851 14.2014 14.851 13.8958 14.5581C13.5902 14.2652 13.5902 13.7903 13.8958 13.4975L16.7627 10.75H8.56508C8.13286 10.75 7.78247 10.4142 7.78247 10C7.78247 9.58579 8.13286 9.25 8.56508 9.25H16.7627L13.8958 6.50256C13.5902 6.20967 13.5902 5.73479 13.8958 5.4419Z" fill="white" fill-opacity="0.9"/>
</svg>
