<svg width="24" height="24" viewBox="0 0 24 24" fill="none" xmlns="http://www.w3.org/2000/svg">
<path d="M21 11.0008H17.06C16.9903 10.9913 16.9197 10.9913 16.85 11.0008H16.68C16.6277 11.0306 16.5776 11.064 16.53 11.1008C16.4743 11.1375 16.4209 11.1776 16.37 11.2208C16.3366 11.2617 16.3065 11.3051 16.28 11.3508C16.2342 11.4138 16.194 11.4807 16.16 11.5508L14.56 15.9608L10.39 4.66078C10.3199 4.46773 10.1921 4.30093 10.0239 4.18306C9.85577 4.06519 9.65537 4.00195 9.45 4.00195C9.24463 4.00195 9.04423 4.06519 8.87605 4.18306C8.70788 4.30093 8.58007 4.46773 8.51 4.66078L6.2 11.0008H3C2.73478 11.0008 2.48043 11.1061 2.29289 11.2937C2.10536 11.4812 2 11.7356 2 12.0008C2 12.266 2.10536 12.5203 2.29289 12.7079C2.48043 12.8954 2.73478 13.0008 3 13.0008H6.92H7.15H7.3C7.35684 12.9734 7.4105 12.9399 7.46 12.9008C7.51568 12.864 7.56911 12.8239 7.62 12.7808L7.71 12.6508C7.75766 12.589 7.79794 12.5219 7.83 12.4508L9.45 7.92078L13.61 19.3408C13.6799 19.534 13.8076 19.7011 13.9758 19.8192C14.144 19.9373 14.3445 20.0007 14.55 20.0008C14.7555 20.0007 14.956 19.9373 15.1242 19.8192C15.2924 19.7011 15.4201 19.534 15.49 19.3408L17.79 13.0008L21 13.0008C21.2652 13.0008 21.5196 12.8954 21.7071 12.7079C21.8946 12.5203 22 12.266 22 12.0008C22 11.7356 21.8946 11.4812 21.7071 11.2937C21.5196 11.1061 21.2652 11.0008 21 11.0008Z" fill="white"/>
</svg>
