<svg width="24" height="24" viewBox="0 0 24 24" fill="none" xmlns="http://www.w3.org/2000/svg">
<path d="M17 22.0007H5C4.20435 22.0007 3.44129 21.6846 2.87868 21.122C2.31607 20.5594 2 19.7963 2 19.0007L2 9.0007C2 8.20505 2.31607 7.44199 2.87868 6.87938C3.44129 6.31677 4.20435 6.0007 5 6.0007H6C6.01682 5.15334 6.30235 4.33322 6.81541 3.65863C7.32848 2.98404 8.04255 2.48985 8.85464 2.24733C9.66673 2.00482 10.5349 2.02651 11.3338 2.30929C12.1328 2.59207 12.8213 3.12132 13.3 3.8207C13.7484 4.45985 13.9925 5.21996 14 6.0007H17C17.2652 6.0007 17.5196 6.10605 17.7071 6.29359C17.8946 6.48113 18 6.73548 18 7.0007V10.0007C18.8474 10.0175 19.6675 10.303 20.3421 10.8161C21.0167 11.3292 21.5109 12.0432 21.7534 12.8553C21.9959 13.6674 21.9742 14.5356 21.6914 15.3345C21.4086 16.1335 20.8794 16.822 20.18 17.3007C19.5409 17.7491 18.7807 17.9932 18 18.0007V18.0007V21.0007C18 21.2659 17.8946 21.5203 17.7071 21.7078C17.5196 21.8953 17.2652 22.0007 17 22.0007ZM5 8.0007C4.73478 8.0007 4.48043 8.10606 4.29289 8.29359C4.10536 8.48113 4 8.73548 4 9.0007L4 19.0007C4 19.2659 4.10536 19.5203 4.29289 19.7078C4.48043 19.8953 4.73478 20.0007 5 20.0007H16V16.8207C15.9991 16.6604 16.0368 16.5022 16.1099 16.3595C16.183 16.2167 16.2894 16.0937 16.42 16.0007C16.5502 15.9078 16.7008 15.8476 16.8592 15.8249C17.0175 15.8023 17.179 15.818 17.33 15.8707C17.615 15.987 17.9254 16.0269 18.2305 15.9866C18.5357 15.9462 18.825 15.827 19.07 15.6407C19.3139 15.492 19.523 15.2928 19.6834 15.0565C19.8439 14.8202 19.9518 14.5522 20 14.2707C20.0386 13.9868 20.0157 13.6978 19.9329 13.4235C19.85 13.1492 19.7092 12.8959 19.52 12.6807C19.2641 12.3698 18.9155 12.1488 18.5252 12.0499C18.1349 11.9509 17.7231 11.9792 17.35 12.1307C17.199 12.1834 17.0375 12.1991 16.8792 12.1765C16.7208 12.1538 16.5702 12.0936 16.44 12.0007C16.3094 11.9077 16.203 11.7847 16.1299 11.6419C16.0568 11.4992 16.0191 11.341 16.02 11.1807V8.0007H12.82C12.6557 8.01001 12.4915 7.97861 12.3422 7.90928C12.1929 7.83995 12.0631 7.73483 11.9641 7.60326C11.8652 7.47169 11.8003 7.31773 11.7752 7.15505C11.75 6.99237 11.7654 6.826 11.82 6.6707C11.9363 6.38571 11.9762 6.07532 11.9359 5.77018C11.8955 5.46504 11.7763 5.17569 11.59 4.9307C11.4424 4.67986 11.2402 4.46547 10.9984 4.30339C10.7566 4.14132 10.4815 4.03572 10.1934 3.99442C9.90527 3.95313 9.61155 3.97719 9.33399 4.06483C9.05644 4.15247 8.80216 4.30144 8.59 4.5007C8.39298 4.69611 8.23877 4.93039 8.1372 5.18863C8.03562 5.44687 7.9889 5.72342 8 6.0007C8.00232 6.23007 8.04637 6.4571 8.13 6.6707C8.18287 6.82192 8.19863 6.98362 8.17597 7.1422C8.1533 7.30078 8.09287 7.4516 7.99976 7.58195C7.90665 7.71231 7.78358 7.81839 7.64093 7.89126C7.49827 7.96413 7.34019 8.00166 7.18 8.0007H5Z" fill="white"/>
</svg>
