<svg width="36" height="36" viewBox="0 0 36 36" fill="none" xmlns="http://www.w3.org/2000/svg">
<circle r="18" transform="matrix(-1 0 0 1 18 18)" fill="#333333"/>
<path d="M19.8763 17.9937L14.5663 12.6837C14.2869 12.4027 14.1301 12.0225 14.1301 11.6262C14.1301 11.2299 14.2869 10.8497 14.5663 10.5687C14.7057 10.4281 14.8716 10.3165 15.0544 10.2404C15.2372 10.1642 15.4333 10.125 15.6313 10.125C15.8293 10.125 16.0254 10.1642 16.2082 10.2404C16.391 10.3165 16.5569 10.4281 16.6963 10.5687L23.0563 16.9287C23.1969 17.0681 23.3085 17.234 23.3846 17.4168C23.4608 17.5996 23.5 17.7957 23.5 17.9937C23.5 18.1917 23.4608 18.3878 23.3846 18.5706C23.3085 18.7534 23.1969 18.9193 23.0563 19.0587L16.6963 25.4937C16.5561 25.6327 16.3899 25.7427 16.2072 25.8174C16.0244 25.892 15.8287 25.9298 15.6313 25.9287C15.4339 25.9298 15.2382 25.892 15.0554 25.8174C14.8727 25.7427 14.7065 25.6327 14.5663 25.4937C14.2869 25.2127 14.1301 24.8325 14.1301 24.4362C14.1301 24.0399 14.2869 23.6597 14.5663 23.3787L19.8763 17.9937Z" fill="white"/>
</svg>
