<svg width="24" height="24" viewBox="0 0 24 24" fill="none" xmlns="http://www.w3.org/2000/svg">
<path fill-rule="evenodd" clip-rule="evenodd" d="M2.77109 8.12594C1.88681 9.57982 2.73162 11.0817 3.7503 11.6396L3.95937 11.7537C3.95617 11.8369 3.95404 11.9201 3.95297 12.0001C3.95404 12.0801 3.95617 12.1633 3.95937 12.2465L3.7503 12.3607C2.73162 12.9185 1.88681 14.4204 2.77109 15.8743L3.95191 17.8135C4.77752 19.1693 6.38607 19.2301 7.36955 18.6914L7.55941 18.5869C7.79622 18.7405 8.04262 18.8834 8.29436 19.0157V19.0519C8.29436 20.3554 9.3237 21.6002 10.8192 21.6002H13.1808C14.6763 21.6002 15.7056 20.3554 15.7056 19.0519V19.0157C15.9574 18.8834 16.2038 18.7405 16.4406 18.5869L16.6305 18.6914C17.6139 19.2301 19.2225 19.1693 20.0481 17.8135L21.2289 15.8743C22.1132 14.4204 21.2684 12.9185 20.2497 12.3607L20.0406 12.2465C20.0438 12.1633 20.046 12.0801 20.047 12.0001C20.046 11.9201 20.0438 11.8369 20.0406 11.7537L20.2497 11.6396C21.2684 11.0817 22.1132 9.57982 21.2289 8.12594L20.0481 6.18671C19.2225 4.83096 17.6139 4.77123 16.6305 5.30884L16.4406 5.41337C16.2038 5.25977 15.9574 5.11683 15.7056 4.98457V4.9483C15.7056 3.64482 14.6763 2.4 13.1808 2.4H10.8192C9.3237 2.4 8.29436 3.64482 8.29436 4.9483V4.98457C8.04262 5.11683 7.79622 5.25977 7.55941 5.41337L7.36955 5.30884C6.38607 4.77123 4.77752 4.83096 3.95191 6.18671L2.77109 8.12594ZM7.75675 7.95313L6.34767 7.18086C6.1386 7.06672 5.88046 7.11792 5.77166 7.29713L4.59085 9.23635C4.48205 9.41555 4.56311 9.65235 4.77218 9.76756L6.26127 10.5825C6.14607 11.0358 6.0842 11.5116 6.0842 12.0001C6.0842 12.4887 6.14607 12.9644 6.26127 13.4177L4.77218 14.2327C4.56311 14.3479 4.48205 14.5847 4.59085 14.7639L5.77166 16.7031C5.88046 16.8823 6.1386 16.9335 6.34767 16.8194L7.75675 16.0471C8.47996 16.7778 9.39624 17.3218 10.4256 17.6002V19.0519C10.4256 19.2813 10.6016 19.4669 10.8192 19.4669H13.1808C13.3984 19.4669 13.5744 19.2813 13.5744 19.0519V17.6002C14.6038 17.3218 15.52 16.7778 16.2433 16.0471L17.6523 16.8194C17.8614 16.9335 18.1195 16.8823 18.2283 16.7031L19.4092 14.7639C19.518 14.5847 19.4369 14.3479 19.2278 14.2327L17.7387 13.4177C17.8539 12.9644 17.9158 12.4887 17.9158 12.0001C17.9158 11.5116 17.8539 11.0358 17.7387 10.5825L19.2278 9.76756C19.4369 9.65235 19.518 9.41555 19.4092 9.23635L18.2283 7.29713C18.1195 7.11792 17.8614 7.06672 17.6523 7.18086L16.2433 7.95313C15.52 7.22246 14.6038 6.67845 13.5744 6.40112V4.9483C13.5744 4.71896 13.3984 4.53336 13.1808 4.53336H10.8192C10.6016 4.53336 10.4256 4.71896 10.4256 4.9483V6.40112C9.39624 6.67845 8.47996 7.22246 7.75675 7.95313ZM11.9958 15.2002C13.7612 15.2002 15.1916 13.7676 15.1916 12.0001C15.1916 10.2326 13.7612 8.80008 11.9958 8.80008C10.2305 8.80008 8.80008 10.2326 8.80008 12.0001C8.80008 13.7676 10.2305 15.2002 11.9958 15.2002ZM13.2 12C13.2 12.6624 12.6631 13.2 12 13.2C11.3369 13.2 10.8 12.6624 10.8 12C10.8 11.3376 11.3369 10.8 12 10.8C12.6631 10.8 13.2 11.3376 13.2 12Z" fill="#C2C9D1"/>
<path fill-rule="evenodd" clip-rule="evenodd" d="M2.77109 8.12594C1.88681 9.57982 2.73162 11.0817 3.7503 11.6396L3.95937 11.7537C3.95617 11.8369 3.95404 11.9201 3.95297 12.0001C3.95404 12.0801 3.95617 12.1633 3.95937 12.2465L3.7503 12.3607C2.73162 12.9185 1.88681 14.4204 2.77109 15.8743L3.95191 17.8135C4.77752 19.1693 6.38607 19.2301 7.36955 18.6914L7.55941 18.5869C7.79622 18.7405 8.04262 18.8834 8.29436 19.0157V19.0519C8.29436 20.3554 9.3237 21.6002 10.8192 21.6002H13.1808C14.6763 21.6002 15.7056 20.3554 15.7056 19.0519V19.0157C15.9574 18.8834 16.2038 18.7405 16.4406 18.5869L16.6305 18.6914C17.6139 19.2301 19.2225 19.1693 20.0481 17.8135L21.2289 15.8743C22.1132 14.4204 21.2684 12.9185 20.2497 12.3607L20.0406 12.2465C20.0438 12.1633 20.046 12.0801 20.047 12.0001C20.046 11.9201 20.0438 11.8369 20.0406 11.7537L20.2497 11.6396C21.2684 11.0817 22.1132 9.57982 21.2289 8.12594L20.0481 6.18671C19.2225 4.83096 17.6139 4.77123 16.6305 5.30884L16.4406 5.41337C16.2038 5.25977 15.9574 5.11683 15.7056 4.98457V4.9483C15.7056 3.64482 14.6763 2.4 13.1808 2.4H10.8192C9.3237 2.4 8.29436 3.64482 8.29436 4.9483V4.98457C8.04262 5.11683 7.79622 5.25977 7.55941 5.41337L7.36955 5.30884C6.38607 4.77123 4.77752 4.83096 3.95191 6.18671L2.77109 8.12594ZM7.75675 7.95313L6.34767 7.18086C6.1386 7.06672 5.88046 7.11792 5.77166 7.29713L4.59085 9.23635C4.48205 9.41555 4.56311 9.65235 4.77218 9.76756L6.26127 10.5825C6.14607 11.0358 6.0842 11.5116 6.0842 12.0001C6.0842 12.4887 6.14607 12.9644 6.26127 13.4177L4.77218 14.2327C4.56311 14.3479 4.48205 14.5847 4.59085 14.7639L5.77166 16.7031C5.88046 16.8823 6.1386 16.9335 6.34767 16.8194L7.75675 16.0471C8.47996 16.7778 9.39624 17.3218 10.4256 17.6002V19.0519C10.4256 19.2813 10.6016 19.4669 10.8192 19.4669H13.1808C13.3984 19.4669 13.5744 19.2813 13.5744 19.0519V17.6002C14.6038 17.3218 15.52 16.7778 16.2433 16.0471L17.6523 16.8194C17.8614 16.9335 18.1195 16.8823 18.2283 16.7031L19.4092 14.7639C19.518 14.5847 19.4369 14.3479 19.2278 14.2327L17.7387 13.4177C17.8539 12.9644 17.9158 12.4887 17.9158 12.0001C17.9158 11.5116 17.8539 11.0358 17.7387 10.5825L19.2278 9.76756C19.4369 9.65235 19.518 9.41555 19.4092 9.23635L18.2283 7.29713C18.1195 7.11792 17.8614 7.06672 17.6523 7.18086L16.2433 7.95313C15.52 7.22246 14.6038 6.67845 13.5744 6.40112V4.9483C13.5744 4.71896 13.3984 4.53336 13.1808 4.53336H10.8192C10.6016 4.53336 10.4256 4.71896 10.4256 4.9483V6.40112C9.39624 6.67845 8.47996 7.22246 7.75675 7.95313ZM11.9958 15.2002C13.7612 15.2002 15.1916 13.7676 15.1916 12.0001C15.1916 10.2326 13.7612 8.80008 11.9958 8.80008C10.2305 8.80008 8.80008 10.2326 8.80008 12.0001C8.80008 13.7676 10.2305 15.2002 11.9958 15.2002ZM13.2 12C13.2 12.6624 12.6631 13.2 12 13.2C11.3369 13.2 10.8 12.6624 10.8 12C10.8 11.3376 11.3369 10.8 12 10.8C12.6631 10.8 13.2 11.3376 13.2 12Z" fill="white" fill-opacity="0.9"/>
</svg>
