<svg width="17" height="17" viewBox="0 0 17 17" fill="none" xmlns="http://www.w3.org/2000/svg">
<path d="M12.5 16.6005H2.5C1.83696 16.6005 1.20107 16.3371 0.732233 15.8683C0.263392 15.3994 0 14.7636 0 14.1005L0 5.76718C0 5.10414 0.263392 4.46826 0.732233 3.99942C1.20107 3.53057 1.83696 3.26718 2.5 3.26718H3.33333C3.34735 2.56105 3.58529 1.87762 4.01284 1.31546C4.4404 0.753299 5.03546 0.341473 5.7122 0.139378C6.38894 -0.062718 7.11238 -0.0446368 7.77819 0.191013C8.44399 0.426663 9.01773 0.867702 9.41667 1.45052C9.79037 1.98314 9.99376 2.61657 10 3.26718L12.5 3.26718C12.721 3.26718 12.933 3.35498 13.0893 3.51126C13.2455 3.66754 13.3333 3.8795 13.3333 4.10052V6.60052C14.0395 6.61453 14.7229 6.85248 15.2851 7.28003C15.8472 7.70758 16.259 8.30264 16.4611 8.97938C16.6632 9.65612 16.6452 10.3796 16.4095 11.0454C16.1739 11.7112 15.7328 12.2849 15.15 12.6838C14.6174 13.0576 13.9839 13.2609 13.3333 13.2672V15.7672C13.3333 15.9882 13.2455 16.2002 13.0893 16.3564C12.933 16.5127 12.721 16.6005 12.5 16.6005Z" fill="#333333"/>
</svg>
