<svg width="24" height="24" viewBox="0 0 24 24" fill="none" xmlns="http://www.w3.org/2000/svg">
<path fill-rule="evenodd" clip-rule="evenodd" d="M14.7231 6.88002C14.7231 8.34395 13.5202 9.56002 12 9.56002C10.4798 9.56002 9.2769 8.34395 9.2769 6.88002C9.2769 5.4161 10.4798 4.20002 12 4.20002C13.5202 4.20002 14.7231 5.4161 14.7231 6.88002ZM16.5231 6.88002C16.5231 9.35426 14.498 11.36 12 11.36C9.50195 11.36 7.4769 9.35426 7.4769 6.88002C7.4769 4.40579 9.50195 2.40002 12 2.40002C14.498 2.40002 16.5231 4.40579 16.5231 6.88002ZM10.1561 14.44H13.8439C16.4027 14.44 18.6 16.6212 18.6 19.4667C18.6 19.5826 18.5563 19.6715 18.5016 19.7284C18.4482 19.784 18.3959 19.8 18.3512 19.8H5.64876C5.60401 19.8 5.55174 19.784 5.49831 19.7284C5.44366 19.6715 5.39998 19.5826 5.39998 19.4667C5.39998 16.6212 7.59727 14.44 10.1561 14.44ZM3.59998 19.4667C3.59998 15.6964 6.53524 12.64 10.1561 12.64H13.8439C17.4647 12.64 20.4 15.6964 20.4 19.4667C20.4 20.6449 19.4827 21.6 18.3512 21.6H5.64876C4.51725 21.6 3.59998 20.6449 3.59998 19.4667Z" fill="#333333"/>
</svg>
