<svg width="32" height="28" viewBox="0 0 32 28" fill="none" xmlns="http://www.w3.org/2000/svg">
<path d="M11.375 0C9.73984 0 8.38359 1.12109 7.99531 2.63594C7.95156 2.63594 7.91875 2.625 7.875 2.625C5.94453 2.625 4.375 4.19453 4.375 6.125C4.375 6.3875 4.40781 6.64453 4.46797 6.89062C2.87109 7.54688 1.75 9.11094 1.75 10.9375C1.75 11.6266 1.925 12.2664 2.20391 12.8461C0.891406 13.6008 0 15.0008 0 16.625C0 18.4461 1.11562 20.0102 2.70156 20.6664C2.65234 20.918 2.625 21.175 2.625 21.4375C2.625 23.6141 4.38594 25.375 6.5625 25.375C6.78672 25.375 7.00547 25.3477 7.21875 25.3094C7.74375 26.868 9.19844 28 10.9375 28C13.1141 28 14.875 26.2391 14.875 24.0625V3.5C14.875 1.56953 13.3055 0 11.375 0ZM31.5 16.625C31.5 15.0008 30.6086 13.6008 29.2961 12.8461C29.5805 12.2664 29.75 11.6266 29.75 10.9375C29.75 9.11094 28.6289 7.54688 27.032 6.89062C27.0867 6.64453 27.125 6.3875 27.125 6.125C27.125 4.19453 25.5555 2.625 23.625 2.625C23.5812 2.625 23.543 2.63594 23.5047 2.63594C23.1164 1.12109 21.7602 0 20.125 0C18.1945 0 16.625 1.56406 16.625 3.5V24.0625C16.625 26.2391 18.3859 28 20.5625 28C22.3016 28 23.7562 26.868 24.2812 25.3094C24.4945 25.3477 24.7133 25.375 24.9375 25.375C27.1141 25.375 28.875 23.6141 28.875 21.4375C28.875 21.175 28.8477 20.918 28.7984 20.6664C30.3844 20.0102 31.5 18.4461 31.5 16.625Z" fill="url(#paint0_linear_29_2189)"/>
<defs>
<linearGradient id="paint0_linear_29_2189" x1="16.38" y1="13.86" x2="13.86" y2="13.86" gradientUnits="userSpaceOnUse">
<stop stop-color="#333333"/>
<stop offset="1" stop-color="#858585"/>
</linearGradient>
</defs>
</svg>
