<svg width="36" height="36" viewBox="0 0 36 36" fill="none" xmlns="http://www.w3.org/2000/svg">
<circle cx="18" cy="18" r="18" fill="#333333"/>
<path d="M16.1237 17.9937L21.4337 12.6837C21.7131 12.4027 21.8699 12.0225 21.8699 11.6262C21.8699 11.2299 21.7131 10.8497 21.4337 10.5687C21.2943 10.4281 21.1284 10.3165 20.9456 10.2404C20.7628 10.1642 20.5667 10.125 20.3687 10.125C20.1707 10.125 19.9746 10.1642 19.7918 10.2404C19.609 10.3165 19.4431 10.4281 19.3037 10.5687L12.9437 16.9287C12.8031 17.0681 12.6915 17.234 12.6154 17.4168C12.5392 17.5996 12.5 17.7957 12.5 17.9937C12.5 18.1917 12.5392 18.3878 12.6154 18.5706C12.6915 18.7534 12.8031 18.9193 12.9437 19.0587L19.3037 25.4937C19.4439 25.6327 19.6101 25.7427 19.7928 25.8174C19.9756 25.892 20.1713 25.9298 20.3687 25.9287C20.5661 25.9298 20.7618 25.892 20.9446 25.8174C21.1273 25.7427 21.2935 25.6327 21.4337 25.4937C21.7131 25.2127 21.8699 24.8325 21.8699 24.4362C21.8699 24.0399 21.7131 23.6597 21.4337 23.3787L16.1237 17.9937Z" fill="white"/>
</svg>
