<svg width="24" height="25" viewBox="0 0 24 25" fill="none" xmlns="http://www.w3.org/2000/svg">
<path fill-rule="evenodd" clip-rule="evenodd" d="M4.5026 6.90348C4.69641 6.70966 4.95928 6.60078 5.23337 6.60078H18.7676C19.0417 6.60078 19.3046 6.70966 19.4984 6.90348C19.6922 7.09729 19.8011 7.36016 19.8011 7.63425V17.3016C19.8011 17.5757 19.6922 17.8385 19.4984 18.0324C19.3046 18.2262 19.0417 18.3351 18.7676 18.3351H7.16684C6.92814 18.3351 6.69922 18.4299 6.53044 18.5987L4.1999 20.9292V7.63425C4.1999 7.36016 4.30879 7.09729 4.5026 6.90348ZM5.23337 4.80078C4.48189 4.80078 3.76118 5.09931 3.22981 5.63068C2.69843 6.16206 2.3999 6.88277 2.3999 7.63425V23.102C2.3999 23.466 2.61918 23.7942 2.95549 23.9335C3.29179 24.0728 3.6789 23.9958 3.9363 23.7384L7.53963 20.1351H18.7676C19.5191 20.1351 20.2398 19.8365 20.7712 19.3051C21.3026 18.7738 21.6011 18.0531 21.6011 17.3016V7.63425C21.6011 6.88277 21.3026 6.16206 20.7712 5.63068C20.2398 5.09931 19.5191 4.80078 18.7676 4.80078H5.23337ZM6.89109 9.60078C6.39404 9.60078 5.99109 10.0037 5.99109 10.5008C5.99109 10.9978 6.39404 11.4008 6.89109 11.4008H17.0999C17.597 11.4008 17.9999 10.9978 17.9999 10.5008C17.9999 10.0037 17.597 9.60078 17.0999 9.60078H6.89109ZM6.8999 13.2014C6.40285 13.2014 5.9999 13.6044 5.9999 14.1014C5.9999 14.5985 6.40285 15.0014 6.8999 15.0014H13.5036C14.0007 15.0014 14.4036 14.5985 14.4036 14.1014C14.4036 13.6044 14.0007 13.2014 13.5036 13.2014L6.8999 13.2014Z" fill="white"/>
</svg>
