<svg width="21" height="20" viewBox="0 0 21 20" fill="none" xmlns="http://www.w3.org/2000/svg">
<path fill-rule="evenodd" clip-rule="evenodd" d="M4.55068 3.5C4.31237 3.5 4.08382 3.59072 3.91531 3.75221C3.7468 3.9137 3.65213 4.13273 3.65213 4.36111V15.6389C3.65213 15.8673 3.7468 16.0863 3.91531 16.2478C4.08382 16.4093 4.31237 16.5 4.55068 16.5H7.913C8.34522 16.5 8.69561 16.8358 8.69561 17.25C8.69561 17.6642 8.34522 18 7.913 18H4.55068C3.89725 18 3.27058 17.7512 2.80854 17.3084C2.34649 16.8657 2.08691 16.2651 2.08691 15.6389V4.36111C2.08691 3.73491 2.34649 3.13435 2.80854 2.69155C3.27058 2.24876 3.89725 2 4.55068 2H7.913C8.34522 2 8.69561 2.33579 8.69561 2.75C8.69561 3.16421 8.34522 3.5 7.913 3.5H4.55068ZM13.2437 5.4419C13.5493 5.14901 14.0448 5.14901 14.3505 5.4419L18.5534 9.46968C18.6362 9.54903 18.6965 9.64175 18.7345 9.74058C18.7581 9.80199 18.7736 9.86718 18.7796 9.93494C18.7893 10.042 18.7751 10.1507 18.7369 10.253C18.6991 10.3542 18.638 10.4493 18.5534 10.5303L14.3505 14.5581C14.0448 14.851 13.5493 14.851 13.2437 14.5581C12.9381 14.2652 12.9381 13.7903 13.2437 13.4975L16.1106 10.75H7.91298C7.48076 10.75 7.13037 10.4142 7.13037 10C7.13037 9.58579 7.48076 9.25 7.91298 9.25H16.1106L13.2437 6.50256C12.9381 6.20967 12.9381 5.73479 13.2437 5.4419Z" fill="#C2C9D1"/>
<path fill-rule="evenodd" clip-rule="evenodd" d="M4.55068 3.5C4.31237 3.5 4.08382 3.59072 3.91531 3.75221C3.7468 3.9137 3.65213 4.13273 3.65213 4.36111V15.6389C3.65213 15.8673 3.7468 16.0863 3.91531 16.2478C4.08382 16.4093 4.31237 16.5 4.55068 16.5H7.913C8.34522 16.5 8.69561 16.8358 8.69561 17.25C8.69561 17.6642 8.34522 18 7.913 18H4.55068C3.89725 18 3.27058 17.7512 2.80854 17.3084C2.34649 16.8657 2.08691 16.2651 2.08691 15.6389V4.36111C2.08691 3.73491 2.34649 3.13435 2.80854 2.69155C3.27058 2.24876 3.89725 2 4.55068 2H7.913C8.34522 2 8.69561 2.33579 8.69561 2.75C8.69561 3.16421 8.34522 3.5 7.913 3.5H4.55068ZM13.2437 5.4419C13.5493 5.14901 14.0448 5.14901 14.3505 5.4419L18.5534 9.46968C18.6362 9.54903 18.6965 9.64175 18.7345 9.74058C18.7581 9.80199 18.7736 9.86718 18.7796 9.93494C18.7893 10.042 18.7751 10.1507 18.7369 10.253C18.6991 10.3542 18.638 10.4493 18.5534 10.5303L14.3505 14.5581C14.0448 14.851 13.5493 14.851 13.2437 14.5581C12.9381 14.2652 12.9381 13.7903 13.2437 13.4975L16.1106 10.75H7.91298C7.48076 10.75 7.13037 10.4142 7.13037 10C7.13037 9.58579 7.48076 9.25 7.91298 9.25H16.1106L13.2437 6.50256C12.9381 6.20967 12.9381 5.73479 13.2437 5.4419Z" fill="white" fill-opacity="0.9"/>
</svg>
