<svg width="36" height="36" viewBox="0 0 36 36" fill="none" xmlns="http://www.w3.org/2000/svg">
<path d="M13 0C11.1313 0 9.58125 1.44141 9.1375 3.38906C9.0875 3.38906 9.05 3.375 9 3.375C6.79375 3.375 5 5.39297 5 7.875C5 8.2125 5.0375 8.54297 5.10625 8.85938C3.28125 9.70313 2 11.7141 2 14.0625C2 14.9484 2.2 15.7711 2.51875 16.5164C1.01875 17.4867 0 19.2867 0 21.375C0 23.7164 1.275 25.7273 3.0875 26.5711C3.03125 26.8945 3 27.225 3 27.5625C3 30.3609 5.0125 32.625 7.5 32.625C7.75625 32.625 8.00625 32.5898 8.25 32.5406C8.85 34.5445 10.5125 36 12.5 36C14.9875 36 17 33.7359 17 30.9375V4.5C17 2.01797 15.2063 0 13 0ZM36 21.375C36 19.2867 34.9812 17.4867 33.4812 16.5164C33.8062 15.7711 34 14.9484 34 14.0625C34 11.7141 32.7187 9.70313 30.8937 8.85938C30.9562 8.54297 31 8.2125 31 7.875C31 5.39297 29.2063 3.375 27 3.375C26.95 3.375 26.9062 3.38906 26.8625 3.38906C26.4187 1.44141 24.8687 0 23 0C20.7937 0 19 2.01094 19 4.5V30.9375C19 33.7359 21.0125 36 23.5 36C25.4875 36 27.15 34.5445 27.75 32.5406C27.9937 32.5898 28.2438 32.625 28.5 32.625C30.9875 32.625 33 30.3609 33 27.5625C33 27.225 32.9687 26.8945 32.9125 26.5711C34.725 25.7273 36 23.7164 36 21.375Z" fill="white"/>
</svg>
